<?xml version="1.0" encoding="utf-8"?>
<!-- Generator: Adobe Illustrator 25.4.1, SVG Export Plug-In . SVG Version: 6.00 Build 0)  -->
<svg version="1.1" id="Layer_1" xmlns="http://www.w3.org/2000/svg" xmlns:xlink="http://www.w3.org/1999/xlink" x="0px" y="0px"
	 viewBox="0 0 98 50" style="enable-background:new 0 0 98 50;" xml:space="preserve">
<style type="text/css">
	.st0{fill:#FFFFFF;}
</style>
<g>
	<g>
		<path class="st0" d="M65.01,15.97H54.96V1.48h9.9v4.33l-4.27,0v1.04l3.91,0v3.71h-3.91v1.1h4.42V15.97z M55.46,15.47h9.05v-3.31
			h-4.42v-2.1h3.91V7.35l-3.91,0V5.31l4.27,0V1.98h-8.9V15.47z"/>
	</g>
	<g>
		<path class="st0" d="M19.31,32.14h-5.59V17.64h5.59V32.14z M14.22,31.64h4.59V18.14h-4.59V31.64z"/>
	</g>
	<g>
		<path class="st0" d="M27.09,32.36c-4.12,0-7.35-3.22-7.35-7.34c0-4.26,3.32-7.6,7.56-7.6c1.18,0,2.39,0.21,3.49,0.61l0.16,0.06
			l0.17,6.08l-0.44-0.41c-0.95-0.89-1.9-1.34-2.81-1.34c-1.38,0-2.51,1.11-2.51,2.47c0,0.67,0.27,1.29,0.77,1.77
			c0.49,0.47,1.14,0.73,1.81,0.73c1,0,1.86-0.4,2.73-1.24l0.44-0.43l-0.17,6.01l-0.14,0.07C29.9,32.21,27.87,32.36,27.09,32.36z
			 M27.29,17.92c-3.96,0-7.06,3.12-7.06,7.1c0,3.83,3.01,6.84,6.85,6.84c0.94,0,2.57-0.16,3.36-0.47l0.13-4.5
			c-0.82,0.67-1.69,0.99-2.64,0.99c-0.81,0-1.57-0.31-2.16-0.86c-0.6-0.57-0.92-1.32-0.92-2.13c0-1.64,1.35-2.97,3.01-2.97
			c0.9,0,1.81,0.37,2.71,1.09l-0.13-4.57C29.45,18.1,28.36,17.92,27.29,17.92z"/>
	</g>
	<g>
		<path class="st0" d="M44.98,32.14h-5.39v-4.87h-2.61v4.87h-5.4V17.64h5.4v4.72h2.61v-4.72h5.39V32.14z M40.09,31.64h4.39V18.14
			h-4.39v4.72h-3.61v-4.72h-4.4v13.49h4.4v-4.87h3.61V31.64z"/>
	</g>
	<g>
		<path class="st0" d="M60.16,32.14h-5.93l-0.46-1.74h-3.44l-0.41,1.74h-5.94l5.04-14.49h5.96L60.16,32.14z M54.61,31.64h4.84
			l-4.82-13.49h-5.25l-4.69,13.49h4.84l0.41-1.74h4.22L54.61,31.64z M53.64,27.36h-3.19l1.27-5.71h0.65l0.03,0.21
			c0.08,0.5,0.2,1,0.32,1.52c0.06,0.25,0.11,0.5,0.17,0.76L53.64,27.36z M51.08,26.86h1.93l-0.6-2.61
			c-0.06-0.26-0.11-0.51-0.17-0.75c-0.07-0.31-0.14-0.61-0.2-0.91L51.08,26.86z"/>
	</g>
	<g>
		<path class="st0" d="M73.03,32.14h-6.49l-1.91-3.84v3.84h-5.48V17.64h6.4c3.85,0,6.06,1.86,6.06,5.12c0,2-0.69,3.05-2.54,3.75
			c0.21,0.17,0.44,0.39,0.65,0.71L73.03,32.14z M66.85,31.64h5.25l-2.79-4.14c-0.23-0.36-0.49-0.55-0.73-0.74l-0.17-0.13v-0.41
			l0.17-0.06c1.89-0.63,2.53-1.49,2.53-3.39c0-4.17-3.89-4.62-5.56-4.62h-5.9v13.49h4.48v-4.48l0.5,0.01L66.85,31.64z M64.79,24.68
			h-0.7v-3.54h0.75c0.76,0,2.34,0,2.34,1.8C67.18,24.68,65.51,24.68,64.79,24.68z M64.59,24.18h0.2c1.38,0,1.89-0.34,1.89-1.24
			c0-1.09-0.65-1.3-1.84-1.3h-0.25V24.18z"/>
	</g>
	<g>
		<path class="st0" d="M43.13,48.3h-6.49l-1.91-3.84v3.84h-5.48V33.81h6.4c3.85,0,6.06,1.86,6.06,5.12c0,2-0.69,3.05-2.54,3.75
			c0.21,0.17,0.44,0.39,0.65,0.71L43.13,48.3z M36.94,47.8h5.24l-2.79-4.14c-0.23-0.35-0.48-0.55-0.73-0.74l-0.17-0.13v-0.41
			l0.17-0.06c1.89-0.63,2.53-1.49,2.53-3.39c0-4.17-3.89-4.62-5.56-4.62h-5.9V47.8h4.48v-4.48l0.5,0.01L36.94,47.8z M34.89,40.85
			h-0.7v-3.54h0.75c0.76,0,2.34,0,2.34,1.8C37.28,40.85,35.6,40.85,34.89,40.85z M34.69,40.35h0.2c1.38,0,1.89-0.34,1.89-1.24
			c0-1.09-0.65-1.3-1.84-1.3h-0.25V40.35z"/>
	</g>
	<g>
		<path class="st0" d="M14.44,32.14H7.95l-1.91-3.84v3.84H0.56V17.64h6.4c3.85,0,6.06,1.86,6.06,5.12c0,2-0.69,3.05-2.54,3.75
			c0.21,0.17,0.44,0.39,0.65,0.71L14.44,32.14z M8.26,31.64h5.24l-2.79-4.14c-0.23-0.36-0.49-0.55-0.73-0.74l-0.16-0.13v-0.41
			l0.17-0.06c1.89-0.63,2.53-1.49,2.53-3.39c0-4.17-3.89-4.62-5.56-4.62h-5.9v13.49h4.48v-4.48l0.5,0.01L8.26,31.64z M6.2,24.68H5.5
			v-3.54h0.75c0.76,0,2.34,0,2.34,1.8C8.59,24.68,6.92,24.68,6.2,24.68z M6,24.18h0.2c1.38,0,1.89-0.34,1.89-1.24
			c0-1.09-0.65-1.3-1.84-1.3H6V24.18z"/>
	</g>
	<g>
		<path class="st0" d="M78.77,32.14h-6.69V17.64h5.43c5.43,0,8.54,2.72,8.54,7.45C86.06,29.31,83.13,32.14,78.77,32.14z
			 M72.58,31.64h6.19c4.06,0,6.78-2.63,6.78-6.54c0-6.05-5.04-6.95-8.04-6.95h-4.93V31.64z M77.74,27.95h-0.56v-5.92h0.56
			c2.11,0,3.23,1.05,3.23,3.04C80.96,26.88,79.76,27.95,77.74,27.95z M77.68,27.45h0.06c0.82,0,2.73-0.23,2.73-2.38
			c0-1.71-0.89-2.54-2.73-2.54h-0.06V27.45z"/>
	</g>
	<g>
		<path class="st0" d="M91.14,32.36c-1.83,0-3.88-0.49-5.5-1.31l-0.2-0.1l1.76-4.48l0.53,0.41c1.04,0.83,2.06,1.24,3.03,1.24
			c0.27,0,1.04-0.11,1.04-0.58c0-0.33-0.23-0.42-0.79-0.53l-1.17-0.21c-2.41-0.43-3.85-1.9-3.85-3.95c0-3.53,3.26-5.43,6.32-5.43
			c1.69,0,3.18,0.42,4.55,1.28l0.17,0.11l-1.55,4.06l-0.26-0.18c-1-0.68-1.92-1.01-2.81-1.01c-0.09,0-0.84,0.01-0.84,0.49
			c0,0.22,0.22,0.31,0.68,0.41l1.29,0.29c2.58,0.58,3.9,2.01,3.9,4.24C97.44,30.71,94.17,32.36,91.14,32.36z M86.07,30.71
			c1.51,0.72,3.39,1.15,5.07,1.15c2.79,0,5.8-1.49,5.8-4.75c0-2-1.15-3.23-3.5-3.75l-1.29-0.29c-0.4-0.09-1.07-0.24-1.07-0.9
			c0-0.68,0.67-0.99,1.34-0.99c0.91,0,1.84,0.3,2.82,0.93l1.18-3.09c-1.25-0.74-2.6-1.1-4.11-1.1c-2.82,0-5.82,1.73-5.82,4.93
			c0,2.57,2.4,3.27,3.44,3.46l1.17,0.21c0.45,0.08,1.2,0.22,1.2,1.02c0,0.74-0.8,1.08-1.54,1.08c-1.09,0-2.21-0.45-3.34-1.35
			L86.07,30.71z"/>
	</g>
	<g>
		<path class="st0" d="M21.1,48.52c-4.69,0-7.97-3.03-7.97-7.38c0-4.52,3.22-7.56,8-7.56c2.61,0,5.98,1.32,7.09,3.75l0.12,0.26
			l-5.35,1.64l-0.1-0.14c-0.35-0.47-0.91-0.73-1.57-0.73c-1.76,0-2.56,1.55-2.56,2.99c0,1.37,0.81,2.75,2.36,2.75
			c0.62,0,1.34-0.23,1.67-0.74h-2.16v-3.79h8.35l-0.01,0.38c-0.04,2.25-0.07,4.19-1.75,6.02C25.73,47.57,23.44,48.52,21.1,48.52z
			 M21.13,34.09c-4.49,0-7.5,2.84-7.5,7.06c0,4.11,3,6.88,7.47,6.88c2.2,0,4.36-0.9,5.76-2.4c1.52-1.66,1.58-3.39,1.61-5.56h-7.34
			v2.79h2.37l-0.09,0.32c-0.27,0.98-1.38,1.42-2.3,1.42c-1.85,0-2.86-1.67-2.86-3.25c0-1.73,1.05-3.49,3.06-3.49
			c0.74,0,1.41,0.29,1.86,0.8l4.47-1.36C26.53,35.28,23.52,34.09,21.13,34.09z"/>
	</g>
	<g>
		<path class="st0" d="M49.68,48.52c-4.7,0-7.99-3.05-7.99-7.43c0-4.35,3.36-7.51,7.99-7.51c4.63,0,7.99,3.16,7.99,7.51
			C57.67,45.47,54.38,48.52,49.68,48.52z M49.68,34.09c-4.34,0-7.48,2.95-7.49,7.01c0,4.08,3.08,6.93,7.49,6.93
			c4.41,0,7.49-2.85,7.49-6.93C57.17,37.04,54.02,34.09,49.68,34.09z M49.69,44.12c-1.68,0-2.86-1.21-2.86-2.95
			c0-1.72,1.2-2.97,2.86-2.97c1.66,0,2.86,1.25,2.86,2.97C52.55,42.91,51.37,44.12,49.69,44.12z M49.69,38.7
			c-1.39,0-2.36,1.02-2.36,2.47c0,1.44,0.97,2.45,2.36,2.45c1.39,0,2.36-1.01,2.36-2.45C52.05,39.71,51.08,38.7,49.69,38.7z"/>
	</g>
	<g>
		<path class="st0" d="M64.73,48.52c0,0-0.01,0-0.01,0c-2.08,0-3.72-0.5-4.87-1.5C58.62,45.97,58,44.39,58,42.33v-8.52h5.59v8.04
			c0,1.24,0.11,1.82,1.14,1.82c1.02,0,1.14-0.58,1.14-1.82v-8.04h5.57l0,8.52c0,2.05-0.62,3.63-1.85,4.69
			C68.43,48.02,66.8,48.52,64.73,48.52z M64.72,48.02C64.73,48.02,64.73,48.02,64.72,48.02c1.95,0,3.48-0.46,4.53-1.37
			c1.11-0.96,1.68-2.42,1.68-4.31l0-8.02h-4.57v7.54c0,0.98,0,2.32-1.64,2.32c-1.64,0-1.64-1.34-1.64-2.32v-7.54H58.5v8.02
			c0,1.9,0.57,3.35,1.68,4.31C61.23,47.56,62.76,48.02,64.72,48.02C64.72,48.02,64.72,48.02,64.72,48.02z"/>
	</g>
	<g>
		<path class="st0" d="M77.69,48.3h-5.41V33.81h6.69c3.7,0,5.91,2.02,5.91,5.4c0,1.47-0.45,2.7-1.31,3.57
			c-0.86,0.87-2.08,1.33-3.54,1.33c0,0,0,0,0,0h-2.34L77.69,48.3z M72.79,47.8h4.41l0-4.2h2.84c0,0,0,0,0,0
			c1.32,0,2.42-0.41,3.18-1.18c0.76-0.77,1.17-1.88,1.17-3.21c0-3.07-2.02-4.9-5.41-4.9h-6.19V47.8z M78.06,40.85h-0.88V37.3h0.86
			c0.84,0,2.6,0,2.6,1.69C80.64,40.85,78.77,40.85,78.06,40.85z M77.69,40.35h0.38c1.47,0,2.08-0.39,2.08-1.36
			c0-1-0.77-1.19-2.1-1.19h-0.36V40.35z"/>
	</g>
	<g>
		<path class="st0" d="M54.1,15.97h-5.39V11.1h-2.61v4.87h-5.4V6.51l-2.15-0.1v9.56h-5.59l0-9.56l-2.79,0.13V1.48h15.94V6.2h2.61
			V1.48h5.39V15.97z M49.22,15.47h4.39V1.98h-4.39V6.7h-3.61V1.98H30.67v4.04l2.79-0.13l0,9.58h4.59V5.89l3.15,0.15v9.43h4.4V10.6
			h3.61V15.47z"/>
	</g>
</g>
</svg>
