<?xml version="1.0" encoding="utf-8"?>
<!-- Generator: Adobe Illustrator 25.4.1, SVG Export Plug-In . SVG Version: 6.00 Build 0)  -->
<svg version="1.1" id="Layer_1" xmlns="http://www.w3.org/2000/svg" xmlns:xlink="http://www.w3.org/1999/xlink" x="0px" y="0px"
	 viewBox="0 0 143 143" style="enable-background:new 0 0 143 143;" xml:space="preserve">
<style type="text/css">
	.st0{fill:#FFFFFF;}
</style>
<g>
	<path class="st0" d="M103.09,41.76c0-1.96-1.13-2.79-2.98-2.79H99.8v5.42h0.31C101.8,44.39,103.09,43.59,103.09,41.76z"/>
	<path class="st0" d="M74.54,38.59h-0.23l-1.16,5.21h2.56l-0.68-2.91C74.85,40.06,74.66,39.33,74.54,38.59z"/>
	<path class="st0" d="M87.22,38.07h-0.5v3.04h0.45c1.07,0,2.14-0.17,2.14-1.49C89.31,38.24,88.33,38.07,87.22,38.07z"/>
	<path class="st0" d="M72.07,55.13c-1.61,0-2.61,1.24-2.61,2.72c0,1.59,1.08,2.7,2.61,2.7c1.54,0,2.61-1.11,2.61-2.7
		C74.67,56.37,73.67,55.13,72.07,55.13z"/>
	<path class="st0" d="M57.31,54.24h-0.5v3.04h0.45c1.07,0,2.14-0.17,2.14-1.49C59.4,54.4,58.43,54.24,57.31,54.24z"/>
	<path class="st0" d="M28.63,38.07h-0.5v3.04h0.45c1.07,0,2.14-0.17,2.14-1.49C30.72,38.24,29.74,38.07,28.63,38.07z"/>
	<path class="st0" d="M100.42,54.23h-0.61v3.05h0.63c1.12,0,2.33-0.19,2.33-1.61C102.77,54.3,101.46,54.23,100.42,54.23z"/>
	<path class="st0" d="M0,0v143.12h143.12V0H0z M77.58,18.41h9.4v3.83l-4.27,0v1.54l3.91,0v3.21h-3.91v1.6h4.42v3.81h-9.55V18.41z
		 M52.8,18.41h10.53h0.15h4.76v4.72h3.11v-4.72h4.89v13.99h-4.89v-4.87h-3.11v4.87h-4.9v-9.44l-2.65-0.12v9.57h-5.09l0-9.57
		l-2.79,0.13V18.41z M49.67,34.36c1.15,0,2.33,0.21,3.4,0.59l0.15,5.31c-0.81-0.76-1.83-1.41-2.98-1.41c-1.52,0-2.76,1.2-2.76,2.72
		c0,1.54,1.31,2.74,2.83,2.74c1.17,0,2.09-0.52,2.91-1.31l-0.15,5.24c-0.81,0.39-2.7,0.55-3.61,0.55c-4,0-7.11-3.09-7.11-7.09
		C42.36,37.63,45.56,34.36,49.67,34.36z M28.25,44.09l-0.09,0v4.48h-4.98V34.58h6.15c3.15,0,5.81,1.35,5.81,4.87
		c0,2.11-0.81,3-2.7,3.63v0.11c0.26,0.2,0.57,0.43,0.85,0.85l3.05,4.53V34.58h5.09v13.99h-5.09h0h-5.87L28.25,44.09z M49.41,62.48
		c-1.5,1.61-3.77,2.48-5.94,2.48c-4.28,0-7.72-2.63-7.72-7.13c0-4.55,3.35-7.31,7.75-7.31c2.42,0,5.77,1.22,6.87,3.61l-4.91,1.5
		c-0.41-0.55-1.05-0.84-1.77-0.84c-1.81,0-2.81,1.56-2.81,3.24c0,1.54,0.96,3,2.61,3c0.8,0,1.81-0.37,2.05-1.24h-2.29V56.5h7.85
		C51.06,58.78,51.06,60.68,49.41,62.48z M59.16,64.74l-2.22-4.48l-0.09,0v4.48h-4.98V50.74h6.15c3.15,0,5.81,1.35,5.81,4.87
		c0,2.11-0.81,3-2.7,3.63v0.11c0.26,0.2,0.57,0.43,0.85,0.85l3.06,4.53H59.16z M72.05,64.96c-4.27,0-7.74-2.68-7.74-7.18
		c0-4.39,3.48-7.26,7.74-7.26c4.24,0,7.74,2.87,7.74,7.26C79.79,62.27,76.31,64.96,72.05,64.96z M87.1,64.96
		c-3.92,0-6.48-1.85-6.48-5.94v-8.27h5.09v7.79c0,1.09,0.04,2.07,1.39,2.07c1.35,0,1.39-0.98,1.39-2.07v-7.79h5.07l0,8.27
		C93.56,63.11,91,64.96,87.1,64.96z M89.07,48.57l-2.22-4.48l-0.09,0v4.48h-4.58h-0.4h-4.98l-0.46-1.74H72.5l-0.41,1.74h-4.99h-0.4
		h-4.49V43.7h-3.11v4.87h-4.9V34.58h4.9v4.72h3.11v-4.72h4.89v12.84l4.47-12.84h5.61l4.59,12.86V34.58h6.15
		c3.15,0,5.81,1.35,5.81,4.87c0,2.11-0.81,3-2.7,3.63v0.11c0.26,0.2,0.57,0.43,0.85,0.85l2.83,4.19V34.58h5.18
		c4.68,0,8.29,2.07,8.29,7.2c0,4.16-2.94,6.79-7.04,6.79h-6.21h-0.23H89.07z M102.41,60.53h-2.59l0,4.2h-4.91V50.74h6.44
		c3.26,0,5.66,1.69,5.66,5.15C107.02,58.74,105.24,60.54,102.41,60.53z M113.51,48.79c-1.78,0-3.81-0.48-5.38-1.28l1.55-3.96
		l0.26,0.2c0.91,0.72,2,1.3,3.18,1.3c0.5,0,1.29-0.21,1.29-0.83c0-0.65-0.66-0.71-1.13-0.8l-1.04-0.18
		c-1.98-0.35-3.64-1.52-3.64-3.7c0-3.31,3.01-5.18,6.07-5.18c1.59,0,3.06,0.39,4.42,1.24l-1.37,3.57c-0.87-0.59-1.86-1.06-2.95-1.06
		c-0.45,0-1.09,0.17-1.09,0.74c0,0.52,0.63,0.59,1.01,0.68l1.15,0.26c2.15,0.48,3.7,1.63,3.7,4
		C119.57,47.14,116.53,48.79,113.51,48.79z"/>
</g>
</svg>
